# xmcd
# Copyright (C) 1995-1998 Ti Kan
#
# Track frame offsets:
#       150
#       7692
#       29235
#       51267
#       67570
#       86770
#       104567
#       124422
#       142947
#       164570
#       182662
#       203832
#       221895
#
# Disc length: 3238 seconds
#
# Revision: 0
# Processed by: cddbd v1.5.2PL0 Copyright (c) Steve Scherf et al.
# Submitted via: CD-Import v1.0
#
DISCID=bb0ca40d
DTITLE=Manau - Panique Celtique
DYEAR=1900
DGENRE=
TTITLE0=Intro
TTITLE1=La Tribu De Dana
TTITLE2=L'avenir Est Un Long Passé ( Nouvel Version )
TTITLE3=Panique Celtique
TTITLE4=Le Chant Des Druides
TTITLE5=Faut Pas Tiser En Bretagne
TTITLE6=Le Chien Du Forgeron
TTITLE7=La Confession
TTITLE8=Un Mauvais Dieu
TTITLE9=Mais Qui Est La Belette
TTITLE10=Je Parle
TTITLE11=Mais Qui Est La Belette ( Remix )
TTITLE12=Lavenir Est Un Long Passé
EXTD=
EXTT0=
EXTT1=
EXTT2=
EXTT3=
EXTT4=
EXTT5=
EXTT6=
EXTT7=
EXTT8=
EXTT9=
EXTT10=
EXTT11=
EXTT12=
PLAYORDER=
